<?xml version="1.0" encoding="utf-8"?>
<!-- Generator: Adobe Illustrator 15.0.0, SVG Export Plug-In . SVG Version: 6.00 Build 0)  -->
<!DOCTYPE svg PUBLIC "-//W3C//DTD SVG 1.1//EN" "http://www.w3.org/Graphics/SVG/1.1/DTD/svg11.dtd" [
	<!ENTITY ns_flows "http://ns.adobe.com/Flows/1.0/">
	<!ENTITY ns_extend "http://ns.adobe.com/Extensibility/1.0/">
	<!ENTITY ns_ai "http://ns.adobe.com/AdobeIllustrator/10.0/">
	<!ENTITY ns_graphs "http://ns.adobe.com/Graphs/1.0/">
]>
<svg version="1.1" id="Layer_1" xmlns:x="&ns_extend;" xmlns:i="&ns_ai;" xmlns:graph="&ns_graphs;"
	 xmlns="http://www.w3.org/2000/svg" xmlns:xlink="http://www.w3.org/1999/xlink" xmlns:a="http://ns.adobe.com/AdobeSVGViewerExtensions/3.0/"
	 x="0px" y="0px" width="64px" height="64px" viewBox="0 0 64 64" enable-background="new 0 0 64 64" xml:space="preserve">
<path fill="#AB5C10" d="M0.065,43.43v5.959c0,1.869,1.493,3.625,6.392,2.566c4.899-1.049,17.258,11.336,23.116,9.936
	c5.857-1.521,10.117-4.09,30.781-6.662c2.771-0.35,3.623-1.285,3.623-2.215c0-0.822,0-5.848,0-5.848L0.065,43.43z"/>
<path fill="#D99025" d="M0.065,43.43c0,1.871,1.493,3.619,6.392,2.57c4.899-1.049,17.258,11.334,23.116,9.93
	c5.857-1.518,10.117-4.09,30.781-6.658c7.243-0.936,2.451-5.492-3.62-6.66C52.687,41.91,0.065,31.608,0.065,43.43z"/>
<path fill="#65B527" d="M61.385,42.646c-7.379-16.628-75.892-10.213-57.588,2.986c-1.865,10.225,11.048,0.676,10.927,4.508
	c-0.169,5.32,5.229,9.83,7.476,6.061c2.356-3.785,6.078,6.74,10.08,0.852c5.341-7.859,11.099,5.189,12.523-1.869
	c1.997-9.898,6.442,4.766,8.308-3.793c0.91-4.172,6.044,5.402,6.51-2.498C59.768,46.428,67.937,47.781,61.385,42.646z"/>
<linearGradient id="SVGID_1_" gradientUnits="userSpaceOnUse" x1="32.4502" y1="57.668" x2="32.4502" y2="32.4341">
	<stop  offset="0" style="stop-color:#96CF33"/>
	<stop  offset="0.4724" style="stop-color:#74B12A"/>
	<stop  offset="1" style="stop-color:#529320"/>
	<a:midPointStop  offset="0" style="stop-color:#96CF33"/>
	<a:midPointStop  offset="0.4727" style="stop-color:#96CF33"/>
	<a:midPointStop  offset="1" style="stop-color:#529320"/>
</linearGradient>
<path fill="url(#SVGID_1_)" d="M61.217,43.064C53.838,26.435-15.015,31.28,5.431,44.141c-1.865,10.227,9.097,1.961,9.823,5.711
	c0.725,3.75,5.045,8.361,7.291,4.59c2.356-3.785,6.027,7.361,10.03,1.473c5.34-7.861,9.442,3.887,11.642-2.928
	c3.247-10.068,6.699,4.633,8.564-3.926c0.909-4.172,4.564,6.168,7.008-1.279C60.304,46.213,66.299,46.902,61.217,43.064z"/>
<path fill="#F46C60" d="M62.758,41.623c-5.104-5.195-26.206,3.502-26.206,3.502S59.956,51.27,62.758,41.623z"/>
<path fill="#F46C60" d="M46.063,46.475c-0.052-1.039,0.521-2.357-8.635-2.174c-9.158,0.186-30.412-2.832-30.412-2.832
	s0.58,11.865,23.175,9.639C41.437,49.998,46.176,48.814,46.063,46.475z"/>
<path fill="#E03636" d="M24.265,51.977c-15.304,0-17.36-8.424-17.894-10.664c0,0,2.323,7.195,11.955,9.105
	c15.546,3.08,20.336-7.047,28.87-4.602C49.75,46.549,45.479,51.977,24.265,51.977z M44.801,46.426
	c-3.906-0.092-10.193,3.426-12.713,4.191C37.386,50.924,49.885,46.549,44.801,46.426z"/>
<path fill="#E03636" d="M47.178,40.854c-0.735,7.713-44.494,8.537-43.759,0.83C4.153,33.969,47.912,33.143,47.178,40.854z"/>
<path fill="#F46C60" d="M46.798,39.771c0.361,7.385-42.64,8.652-43,1.27C3.64,37.789,46.641,36.52,46.798,39.771z"/>
<path fill="#E03636" d="M46.444,46.914L46.444,46.914L46.444,46.914l0.28-0.875c0,0,5.26,1.188,7.843-0.924
	c7.329-5.996,8.566-3.65,8.387-2.852C61.781,47.576,50.971,48.076,46.444,46.914z M54.315,46.51
	c4.551-0.656,7.661-2.916,7.579-4.129C61.798,40.9,56.772,45.131,54.315,46.51z"/>
<linearGradient id="SVGID_2_" gradientUnits="userSpaceOnUse" x1="33.9395" y1="53.1689" x2="30.7665" y2="33.9966">
	<stop  offset="0.3152" style="stop-color:#FFDF40"/>
	<stop  offset="0.4424" style="stop-color:#F9B700"/>
	<a:midPointStop  offset="0.3152" style="stop-color:#FFDF40"/>
	<a:midPointStop  offset="0.5" style="stop-color:#FFDF40"/>
	<a:midPointStop  offset="0.4424" style="stop-color:#F9B700"/>
</linearGradient>
<path fill="url(#SVGID_2_)" d="M0,41.58c0,0,20.298-5.039,34.636,12.527c0,0,12.795-14.854,29.342-12.918
	C61.426,27.916,3.97,13.415,0,41.58z"/>
<path fill="#AB5C10" d="M0.065,27.153v5.958c0,1.867,1.493,3.621,6.392,2.568c4.899-1.053,17.258,11.334,23.116,9.93
	c5.857-1.518,10.117-4.088,30.781-6.656c2.663-0.352,3.623-1.17,3.623-2.104v-5.959L0.065,27.153z"/>
<path fill="#F5CFA0" d="M0.065,27.034c0,1.871,1.493,3.622,6.392,2.572c4.899-1.055,17.258,11.332,23.116,9.931
	c5.857-1.52,10.117-4.09,30.781-6.659c7.243-0.936,2.451-5.493-3.62-6.661c-4.048-0.701-14.38-3.038-15.447-5.729
	c-1.063-2.685-15.338-3.386-24.496-1.167C7.523,21.545,0.065,23.998,0.065,27.034z"/>
<path fill="#FFE8BB" d="M0.948,27.01c0,1.794,1.259,2.884,6.069,1.877c4.813-1.01,16.96,11.123,22.714,9.781
	c5.751-1.455,9.354-3.766,29.646-6.227c6.889-0.869,2.455-4.796-3.294-5.875c-3.977-0.672-14.308-3.081-15.355-5.659
	c-1.044-2.571-14.625-3.105-23.62-0.988C8.009,22.059,0.948,24.101,0.948,27.01z"/>
<path fill="#FADEAA" d="M6.856,24.8c1.066,0,1.066,1.479,0,1.479C5.791,26.28,5.791,24.8,6.856,24.8z"/>
<path fill="#FADEAA" d="M20.042,21.459c1.066,0,1.066,1.479,0,1.479C18.977,22.939,18.977,21.459,20.042,21.459z"/>
<path fill="#FADEAA" d="M26.542,24.434c1.063,0,1.063,1.48,0,1.48C25.475,25.914,25.475,24.434,26.542,24.434z"/>
<path fill="#FADEAA" d="M37.822,25.914c1.067,0,1.067,1.481,0,1.481C36.758,27.395,36.758,25.914,37.822,25.914z"/>
<path fill="#FADEAA" d="M34.347,20.914c1.067,0,1.067,1.479,0,1.479C33.282,22.393,33.282,20.914,34.347,20.914z"/>
<path fill="#FADEAA" d="M52.585,30.278c1.067,0,1.067,1.482,0,1.482C51.521,31.76,51.521,30.278,52.585,30.278z"/>
<path fill="#FADEAA" d="M42.936,26.412c1.067,0,1.067,1.482,0,1.482C41.871,27.895,41.871,26.412,42.936,26.412z"/>
<path fill="#FADEAA" d="M31.476,27.579c1.066,0,1.066,1.482,0,1.482C30.411,29.062,30.411,27.579,31.476,27.579z"/>
<path fill="#FADEAA" d="M20.301,25.539c1.067,0,1.067,1.482,0,1.482C19.236,27.021,19.236,25.539,20.301,25.539z"/>
<path fill="#FADEAA" d="M17.318,28.52c1.066,0,1.066,1.482,0,1.482C16.254,30.002,16.254,28.52,17.318,28.52z"/>
<path fill="#FADEAA" d="M23.504,27.059c0.749,0,0.749,1.041,0,1.041C22.757,28.1,22.757,27.059,23.504,27.059z"/>
<path fill="#FADEAA" d="M30.438,24.653c0.749,0,0.749,1.041,0,1.041C29.691,25.694,29.691,24.653,30.438,24.653z"/>
<path fill="#FADEAA" d="M22.943,23.175c0.749,0,0.749,1.041,0,1.041C22.196,24.216,22.196,23.175,22.943,23.175z"/>
<path fill="#FADEAA" d="M17.08,23.356c0.749,0,0.749,1.041,0,1.041C16.333,24.397,16.333,23.356,17.08,23.356z"/>
<path fill="#FADEAA" d="M16.675,20.502c0.749,0,0.749,1.041,0,1.041C15.928,21.543,15.928,20.502,16.675,20.502z"/>
<path fill="#FADEAA" d="M28.366,19.02c0.749,0,0.749,1.041,0,1.041C27.619,20.061,27.619,19.02,28.366,19.02z"/>
<path fill="#FADEAA" d="M29.639,30.499c0.749,0,0.749,1.041,0,1.041C28.892,31.54,28.892,30.499,29.639,30.499z"/>
<path fill="#FADEAA" d="M30.677,35.439c0.749,0,0.749,1.041,0,1.041C29.93,36.48,29.93,35.439,30.677,35.439z"/>
<path fill="#FADEAA" d="M35.708,33.729c0.749,0,0.749,1.041,0,1.041C34.961,34.77,34.961,33.729,35.708,33.729z"/>
<path fill="#FADEAA" d="M37.023,31.264c0.749,0,0.749,1.041,0,1.041C36.276,32.305,36.276,31.264,37.023,31.264z"/>
<path fill="#FADEAA" d="M45.503,32.233c0.749,0,0.749,1.041,0,1.041C44.756,33.273,44.756,32.233,45.503,32.233z"/>
<path fill="#FADEAA" d="M43.175,31.432c0.749,0,0.749,1.041,0,1.041C42.428,32.473,42.428,31.432,43.175,31.432z"/>
<path fill="#FADEAA" d="M43.175,29.262c0.749,0,0.749,1.041,0,1.041C42.428,30.303,42.428,29.262,43.175,29.262z"/>
<path fill="#FADEAA" d="M45.924,29.262c0.749,0,0.749,1.041,0,1.041C45.177,30.303,45.177,29.262,45.924,29.262z"/>
<path fill="#FADEAA" d="M33.353,31.54c0.749,0,0.749,1.041,0,1.041C32.605,32.581,32.605,31.54,33.353,31.54z"/>
<path fill="#FADEAA" d="M29.488,33.438c0.749,0,0.749,1.041,0,1.041C28.741,34.479,28.741,33.438,29.488,33.438z"/>
<path fill="#FADEAA" d="M23.082,30.912c0.749,0,0.749,1.041,0,1.041C22.335,31.953,22.335,30.912,23.082,30.912z"/>
<path fill="#FADEAA" d="M20.54,32.917c0.749,0,0.749,1.041,0,1.041C19.793,33.957,19.793,32.917,20.54,32.917z"/>
<path fill="#FADEAA" d="M21.102,28.951c0.749,0,0.749,1.041,0,1.041C20.354,29.992,20.354,28.951,21.102,28.951z"/>
<path fill="#FADEAA" d="M16.356,25.54c0.749,0,0.749,1.041,0,1.041C15.609,26.581,15.609,25.54,16.356,25.54z"/>
<path fill="#FADEAA" d="M14.338,27.241c0.749,0,0.749,1.041,0,1.041C13.591,28.282,13.591,27.241,14.338,27.241z"/>
<path fill="#FADEAA" d="M15.234,29.757c0.749,0,0.749,1.041,0,1.041C14.487,30.798,14.487,29.757,15.234,29.757z"/>
<path fill="#FADEAA" d="M13.539,25.393c0.749,0,0.749,1.041,0,1.041C12.792,26.434,12.792,25.393,13.539,25.393z"/>
<path fill="#FADEAA" d="M14.338,21.873c0.749,0,0.749,1.041,0,1.041C13.591,22.914,13.591,21.873,14.338,21.873z"/>
<path fill="#FADEAA" d="M30.677,21.873c0.749,0,0.749,1.041,0,1.041C29.93,22.914,29.93,21.873,30.677,21.873z"/>
<path fill="#FADEAA" d="M35.708,28.209c0.749,0,0.749,1.041,0,1.041C34.961,29.25,34.961,28.209,35.708,28.209z"/>
<path fill="#FADEAA" d="M41.833,23.877c0.749,0,0.749,1.041,0,1.041C41.086,24.918,41.086,23.877,41.833,23.877z"/>
<path fill="#FADEAA" d="M48.648,31.953c0.749,0,0.749,1.041,0,1.041C47.901,32.994,47.901,31.953,48.648,31.953z"/>
<path fill="#FADEAA" d="M50.398,26.875c0.749,0,0.749,1.041,0,1.041C49.651,27.916,49.651,26.875,50.398,26.875z"/>
<path fill="#FADEAA" d="M56.106,30.744c0.749,0,0.749,1.041,0,1.041C55.359,31.785,55.359,30.744,56.106,30.744z"/>
<path fill="#FADEAA" d="M58.294,28.541c0.749,0,0.749,1.041,0,1.041C57.547,29.582,57.547,28.541,58.294,28.541z"/>
<path fill="#FADEAA" d="M55.419,27.999c0.749,0,0.749,1.041,0,1.041C54.672,29.04,54.672,27.999,55.419,27.999z"/>
<path fill="#FADEAA" d="M23.504,33.957c0.749,0,0.749,1.041,0,1.041C22.757,34.998,22.757,33.957,23.504,33.957z"/>
<path fill="#FADEAA" d="M18.379,31.019c0.749,0,0.749,1.041,0,1.041C17.632,32.06,17.632,31.019,18.379,31.019z"/>
<path fill="#FADEAA" d="M12.739,28.303c0.749,0,0.749,1.041,0,1.041C11.992,29.344,11.992,28.303,12.739,28.303z"/>
<path fill="#FADEAA" d="M6.371,27.241c0.749,0,0.749,1.041,0,1.041C5.624,28.282,5.624,27.241,6.371,27.241z"/>
<path fill="#FADEAA" d="M3.797,24.28c0.749,0,0.749,1.041,0,1.041C3.05,25.321,3.05,24.28,3.797,24.28z"/>
<path fill="#FADEAA" d="M11.376,23.913c0.749,0,0.749,1.041,0,1.041C10.629,24.954,10.629,23.913,11.376,23.913z"/>
<path fill="#FADEAA" d="M22.706,19.54c0.749,0,0.749,1.041,0,1.041C21.959,20.581,21.959,19.54,22.706,19.54z"/>
<path fill="#FADEAA" d="M27.9,22.42c0.749,0,0.749,1.041,0,1.041C27.153,23.461,27.153,22.42,27.9,22.42z"/>
<path fill="#FADEAA" d="M37.112,20.061c0.749,0,0.749,1.041,0,1.041C36.365,21.102,36.365,20.061,37.112,20.061z"/>
<path fill="#FADEAA" d="M27.34,27.241c0.749,0,0.749,1.041,0,1.041C26.593,28.282,26.593,27.241,27.34,27.241z"/>
<path fill="#FADEAA" d="M33.913,26.354c0.749,0,0.749,1.041,0,1.041C33.166,27.395,33.166,26.354,33.913,26.354z"/>
<path fill="#FADEAA" d="M40.288,25.393c0.749,0,0.749,1.041,0,1.041C39.541,26.434,39.541,25.393,40.288,25.393z"/>
<path fill="#FADEAA" d="M44.802,24.654c0.749,0,0.749,1.041,0,1.041C44.055,25.695,44.055,24.654,44.802,24.654z"/>
<path fill="#FADEAA" d="M27.566,34.479c1.067,0,1.067,1.482,0,1.482C26.502,35.961,26.502,34.479,27.566,34.479z"/>
<path fill="#FADEAA" d="M26.539,29.782c1.066,0,1.066,1.482,0,1.482C25.475,31.264,25.475,29.782,26.539,29.782z"/>
<path fill="#FADEAA" d="M24.94,20.912c1.066,0,1.066,1.482,0,1.482C23.876,22.395,23.876,20.912,24.94,20.912z"/>
<path fill="#FADEAA" d="M10.576,25.692c1.067,0,1.067,1.482,0,1.482C9.512,27.175,9.512,25.692,10.576,25.692z"/>
<path fill="#FADEAA" d="M3.409,26.434c1.066,0,1.066,1.482,0,1.482C2.345,27.916,2.345,26.434,3.409,26.434z"/>
<path fill="#FADEAA" d="M9.331,22.395c1.066,0,1.066,1.482,0,1.482C8.267,23.877,8.267,22.395,9.331,22.395z"/>
<path fill="#FADEAA" d="M32.449,19.02c1.066,0,1.066,1.482,0,1.482C31.385,20.502,31.385,19.02,32.449,19.02z"/>
<path fill="#FADEAA" d="M37.572,22.395c1.067,0,1.067,1.482,0,1.482C36.509,23.877,36.509,22.395,37.572,22.395z"/>
<path fill="#FADEAA" d="M39.727,32.252c1.066,0,1.066,1.482,0,1.482C38.662,33.734,38.662,32.252,39.727,32.252z"/>
<path fill="#FADEAA" d="M38.622,29.041c1.066,0,1.066,1.482,0,1.482C37.558,30.523,37.558,29.041,38.622,29.041z"/>
<path fill="#FADEAA" d="M39.727,21.458c1.066,0,1.066,1.482,0,1.482C38.662,22.94,38.662,21.458,39.727,21.458z"/>
<path fill="#FADEAA" d="M34.15,23.692c1.067,0,1.067,1.482,0,1.482C33.087,25.175,33.087,23.692,34.15,23.692z"/>
<path fill="#FADEAA" d="M53.036,27.153c1.067,0,1.067,1.482,0,1.482C51.972,28.636,51.972,27.153,53.036,27.153z"/>
<path fill="#FADEAA" d="M48.409,29.261c1.067,0,1.067,1.482,0,1.482C47.346,30.743,47.346,29.261,48.409,29.261z"/>
<path fill="#FADEAA" d="M60.464,29.261c1.067,0,1.067,1.482,0,1.482C59.4,30.743,59.4,29.261,60.464,29.261z"/>
<path fill="#FADEAA" d="M47.058,26.281c1.067,0,1.067,1.481,0,1.481C45.994,27.762,45.994,26.281,47.058,26.281z"/>
</svg>
