<?xml version="1.0" encoding="utf-8"?>
<!-- Generator: Adobe Illustrator 15.0.0, SVG Export Plug-In . SVG Version: 6.00 Build 0)  -->
<!DOCTYPE svg PUBLIC "-//W3C//DTD SVG 1.1//EN" "http://www.w3.org/Graphics/SVG/1.1/DTD/svg11.dtd" [
	<!ENTITY ns_flows "http://ns.adobe.com/Flows/1.0/">
	<!ENTITY ns_extend "http://ns.adobe.com/Extensibility/1.0/">
	<!ENTITY ns_ai "http://ns.adobe.com/AdobeIllustrator/10.0/">
	<!ENTITY ns_graphs "http://ns.adobe.com/Graphs/1.0/">
]>
<svg version="1.1" id="Layer_1" xmlns:x="&ns_extend;" xmlns:i="&ns_ai;" xmlns:graph="&ns_graphs;"
	 xmlns="http://www.w3.org/2000/svg" xmlns:xlink="http://www.w3.org/1999/xlink" xmlns:a="http://ns.adobe.com/AdobeSVGViewerExtensions/3.0/"
	 x="0px" y="0px" width="64px" height="64px" viewBox="0 0 64 64" enable-background="new 0 0 64 64" xml:space="preserve">
<linearGradient id="SVGID_1_" gradientUnits="userSpaceOnUse" x1="32.0005" y1="62" x2="32.0005" y2="2.0005">
	<stop  offset="0" style="stop-color:#FF7B00"/>
	<stop  offset="0.3236" style="stop-color:#FFAE00"/>
	<stop  offset="0.6205" style="stop-color:#FFD600"/>
	<stop  offset="0.8558" style="stop-color:#FFEE00"/>
	<stop  offset="1" style="stop-color:#FFF700"/>
	<a:midPointStop  offset="0" style="stop-color:#FF7B00"/>
	<a:midPointStop  offset="0.4" style="stop-color:#FF7B00"/>
	<a:midPointStop  offset="1" style="stop-color:#FFF700"/>
</linearGradient>
<circle fill="url(#SVGID_1_)" cx="32" cy="32" r="30"/>
<ellipse fill="#1A1626" cx="22" cy="25" rx="4" ry="5"/>
<ellipse fill="#1A1626" cx="42" cy="25" rx="4" ry="5"/>
<path fill="#96A3A8" d="M29.877,43h-1.601c-0.11,0-0.2,0.08-0.2,0.18v3.641c0,0.1,0.09,0.18,0.2,0.18h1.601
	c0.109,0,0.199-0.08,0.199-0.18V43.18C30.077,43.08,29.987,43,29.877,43z"/>
<path fill="#6E8189" d="M19.877,41h-1.601c-0.11,0-0.2,0.08-0.2,0.18v3.641c0,0.1,0.09,0.18,0.2,0.18h1.601
	c0.109,0,0.199-0.08,0.199-0.18V41.18C20.077,41.08,19.987,41,19.877,41z"/>
<path fill="#6E8189" d="M31.877,41h-1.601c-0.11,0-0.2,0.08-0.2,0.18v3.641c0,0.1,0.09,0.18,0.2,0.18h1.601
	c0.109,0,0.199-0.08,0.199-0.18V41.18C32.077,41.08,31.987,41,31.877,41z"/>
<path fill="#96A3A8" d="M21.877,43h-1.601c-0.11,0-0.2,0.08-0.2,0.18v3.641c0,0.1,0.09,0.18,0.2,0.18h1.601
	c0.109,0,0.199-0.08,0.199-0.18V43.18C22.077,43.08,21.987,43,21.877,43z"/>
<path fill="#6E8189" d="M23.877,41h-1.601c-0.11,0-0.2,0.08-0.2,0.18v3.641c0,0.1,0.09,0.18,0.2,0.18h1.601
	c0.109,0,0.199-0.08,0.199-0.18V41.18C24.077,41.08,23.987,41,23.877,41z"/>
<path fill="#96A3A8" d="M25.877,43h-1.601c-0.11,0-0.2,0.08-0.2,0.18v3.641c0,0.1,0.09,0.18,0.2,0.18h1.601
	c0.109,0,0.199-0.08,0.199-0.18V43.18C26.077,43.08,25.987,43,25.877,43z"/>
<path fill="#6E8189" d="M27.877,41h-1.601c-0.11,0-0.2,0.08-0.2,0.18v3.641c0,0.1,0.09,0.18,0.2,0.18h1.601
	c0.109,0,0.199-0.08,0.199-0.18V41.18C28.077,41.08,27.987,41,27.877,41z"/>
<path fill="#96A3A8" d="M41.877,43h-1.6c-0.111,0-0.201,0.08-0.201,0.18v3.641c0,0.1,0.09,0.18,0.201,0.18h1.6
	c0.109,0,0.199-0.08,0.199-0.18V43.18C42.076,43.08,41.986,43,41.877,43z"/>
<path fill="#6E8189" d="M43.877,41h-1.6c-0.111,0-0.201,0.08-0.201,0.18v3.641c0,0.1,0.09,0.18,0.201,0.18h1.6
	c0.109,0,0.199-0.08,0.199-0.18V41.18C44.076,41.08,43.986,41,43.877,41z"/>
<path fill="#96A3A8" d="M33.877,43h-1.6c-0.11,0-0.2,0.08-0.2,0.18v3.641c0,0.1,0.09,0.18,0.2,0.18h1.6
	c0.109,0,0.199-0.08,0.199-0.18V43.18C34.076,43.08,33.986,43,33.877,43z"/>
<path fill="#6E8189" d="M35.877,41h-1.6c-0.111,0-0.201,0.08-0.201,0.18v3.641c0,0.1,0.09,0.18,0.201,0.18h1.6
	c0.109,0,0.199-0.08,0.199-0.18V41.18C36.076,41.08,35.986,41,35.877,41z"/>
<path fill="#96A3A8" d="M37.877,43h-1.6c-0.111,0-0.201,0.08-0.201,0.18v3.641c0,0.1,0.09,0.18,0.201,0.18h1.6
	c0.109,0,0.199-0.08,0.199-0.18V43.18C38.076,43.08,37.986,43,37.877,43z"/>
<path fill="#6E8189" d="M39.877,41h-1.6c-0.111,0-0.201,0.08-0.201,0.18v3.641c0,0.1,0.09,0.18,0.201,0.18h1.6
	c0.109,0,0.199-0.08,0.199-0.18V41.18C40.076,41.08,39.986,41,39.877,41z"/>
<path fill="#A4B2B8" d="M17.877,41h-2.601c-0.11,0-0.2,0.08-0.2,0.18v5.641c0,0.1,0.09,0.18,0.2,0.18h2.601
	c0.109,0,0.199-0.08,0.199-0.18V41.18C18.077,41.08,17.987,41,17.877,41z"/>
<path fill="#A4B2B8" d="M48.41,45.949c0.684,0,0.686-3.896,0-3.896c-0.443,0-1.303,0.055-1.398,0C46.547,41.785,46.182,41,45.438,41
	c-3.352,0-3.352,6,0,6c0.742,0,1.109-0.785,1.574-1.051C47.107,45.894,47.834,45.949,48.41,45.949z"/>
<path fill="#6E8189" d="M48.424,44.301V43.7c0-0.11-0.08-0.2-0.18-0.2h-3.641c-0.1,0-0.18,0.09-0.18,0.2v0.601
	c0,0.109,0.08,0.199,0.18,0.199h3.641C48.344,44.5,48.424,44.41,48.424,44.301z"/>
<path fill="#96A3A8" d="M49.4,45.743c-1.51-2.345-4.543-1.81-5.156,0.909c-0.598,2.638-1.441,6.432-0.908,9.451
	c0.801,4.549,3.266,5.236,6.066,4.741c2.803-0.493,4.885-1.981,4.082-6.529C52.951,51.293,50.861,48.018,49.4,45.743z
	 M48.945,47.416c0.545,3.086-3.158,3.74-3.703,0.653C44.697,44.98,48.4,44.328,48.945,47.416z M44.996,56.41
	c-0.826-4.688,6.205-5.927,7.033-1.24C52.855,59.857,45.822,61.098,44.996,56.41z"/>
<path fill="#6E8189" d="M46.654,42.906l-1.141,0.201c-0.209,0.037-0.354,0.219-0.32,0.408l0.551,3.115
	c0.031,0.189,0.23,0.313,0.439,0.275l1.141-0.201c0.209-0.037,0.352-0.219,0.318-0.409l-0.549-3.115
	C47.061,42.991,46.861,42.869,46.654,42.906z"/>
</svg>
