<?xml version="1.0" encoding="utf-8"?>
<!-- Generator: Adobe Illustrator 15.0.0, SVG Export Plug-In . SVG Version: 6.00 Build 0)  -->
<!DOCTYPE svg PUBLIC "-//W3C//DTD SVG 1.1//EN" "http://www.w3.org/Graphics/SVG/1.1/DTD/svg11.dtd" [
	<!ENTITY ns_flows "http://ns.adobe.com/Flows/1.0/">
	<!ENTITY ns_extend "http://ns.adobe.com/Extensibility/1.0/">
	<!ENTITY ns_ai "http://ns.adobe.com/AdobeIllustrator/10.0/">
	<!ENTITY ns_graphs "http://ns.adobe.com/Graphs/1.0/">
]>
<svg version="1.1" id="Layer_1" xmlns:x="&ns_extend;" xmlns:i="&ns_ai;" xmlns:graph="&ns_graphs;"
	 xmlns="http://www.w3.org/2000/svg" xmlns:xlink="http://www.w3.org/1999/xlink" xmlns:a="http://ns.adobe.com/AdobeSVGViewerExtensions/3.0/"
	 x="0px" y="0px" width="64px" height="64px" viewBox="0 0 64 64" enable-background="new 0 0 64 64" xml:space="preserve">
<linearGradient id="SVGID_1_" gradientUnits="userSpaceOnUse" x1="31.8364" y1="61.6729" x2="31.8364" y2="2" gradientTransform="matrix(1 0 0 1 4.882813e-004 4.882813e-004)">
	<stop  offset="0" style="stop-color:#FF7B00"/>
	<stop  offset="0.3236" style="stop-color:#FFAE00"/>
	<stop  offset="0.6205" style="stop-color:#FFD600"/>
	<stop  offset="0.8558" style="stop-color:#FFEE00"/>
	<stop  offset="1" style="stop-color:#FFF700"/>
	<a:midPointStop  offset="0" style="stop-color:#FF7B00"/>
	<a:midPointStop  offset="0.4" style="stop-color:#FF7B00"/>
	<a:midPointStop  offset="1" style="stop-color:#FFF700"/>
</linearGradient>
<circle fill="url(#SVGID_1_)" cx="31.836" cy="31.836" r="29.836"/>
<path fill="#1A1626" d="M42.086,20.643c-3.039,2.082-7.104,5.236-11.654,9.786c-4.55,4.549-7.707,8.616-9.788,11.656
	c-1.05,1.533-0.685,3.308,0.461,4.329c5.768,5.141,14.531,5.535,22.689-2.623c8.157-8.158,7.76-16.917,2.62-22.686
	C45.393,19.958,43.618,19.593,42.086,20.643z"/>
<path fill="#FD7383" d="M34.983,46.974c0,0,4.071-1.258,7.401-4.588c3.332-3.332,4.59-7.403,4.59-7.403s-4.107-0.111-7.401,4.589
	C34.873,42.866,34.983,46.974,34.983,46.974z"/>
<linearGradient id="SVGID_2_" gradientUnits="userSpaceOnUse" x1="-318.4717" y1="-14.7598" x2="-286.6694" y2="-14.7598" gradientTransform="matrix(0.7071 -0.7071 0.7071 0.7071 257.9804 -169.9204)">
	<stop  offset="0" style="stop-color:#CFD7E6"/>
	<stop  offset="0.0368" style="stop-color:#DAE0EC"/>
	<stop  offset="0.1263" style="stop-color:#EEF1F6"/>
	<stop  offset="0.2147" style="stop-color:#FBFCFD"/>
	<stop  offset="0.3" style="stop-color:#FFFFFF"/>
	<stop  offset="0.7" style="stop-color:#FFFFFF"/>
	<stop  offset="0.7853" style="stop-color:#FBFCFD"/>
	<stop  offset="0.8737" style="stop-color:#EEF1F6"/>
	<stop  offset="0.9632" style="stop-color:#DAE0EC"/>
	<stop  offset="1" style="stop-color:#CFD7E6"/>
	<a:midPointStop  offset="0" style="stop-color:#CFD7E6"/>
	<a:midPointStop  offset="0.3" style="stop-color:#CFD7E6"/>
	<a:midPointStop  offset="0.3" style="stop-color:#FFFFFF"/>
	<a:midPointStop  offset="0.5" style="stop-color:#FFFFFF"/>
	<a:midPointStop  offset="0.7" style="stop-color:#FFFFFF"/>
	<a:midPointStop  offset="0.7" style="stop-color:#FFFFFF"/>
	<a:midPointStop  offset="1" style="stop-color:#CFD7E6"/>
</linearGradient>
<path fill="url(#SVGID_2_)" d="M42.912,22.508c-2.082,1.45-6.37,4.623-11.075,9.328c-4.704,4.704-7.878,8.993-9.327,11.075
	c-0.903,1.303-0.445,1.805,0.623,2.58c0.935,0.678,1.236,0.806,2.103-0.037c0.795-0.773,10.11-10.11,10.11-10.11
	s9.337-9.314,10.11-10.109c0.844-0.867,0.715-1.169,0.037-2.103C44.717,22.063,44.215,21.605,42.912,22.508z"/>
<radialGradient id="SVGID_3_" cx="58.3438" cy="5.5576" r="6.3363" gradientTransform="matrix(-0.9302 0.367 0.5791 1.4676 69.6059 21.1889)" gradientUnits="userSpaceOnUse">
	<stop  offset="0.4303" style="stop-color:#66E4FF"/>
	<stop  offset="0.5507" style="stop-color:#61E0FF"/>
	<stop  offset="0.6944" style="stop-color:#52D5FF"/>
	<stop  offset="0.8493" style="stop-color:#3BC2FF"/>
	<stop  offset="1" style="stop-color:#1CAAFF"/>
	<a:midPointStop  offset="0.4303" style="stop-color:#66E4FF"/>
	<a:midPointStop  offset="0.6702" style="stop-color:#66E4FF"/>
	<a:midPointStop  offset="1" style="stop-color:#1CAAFF"/>
</radialGradient>
<path fill="url(#SVGID_3_)" d="M13.959,55.73c-1.745-5.173,1.429-12.663,2.04-13.24c0.803-0.757-0.473,2.481,7.203,7.825
	C34.045,57.857,18.51,69.224,13.959,55.73z"/>
<radialGradient id="SVGID_4_" cx="-359.8203" cy="67.4902" r="4.103" gradientTransform="matrix(0.5223 -0.1203 0.2534 1.101 186.9805 -63.7208)" gradientUnits="userSpaceOnUse">
	<stop  offset="0" style="stop-color:#D4F2FF"/>
	<stop  offset="0.5519" style="stop-color:#D1F1FF;stop-opacity:0.4481"/>
	<stop  offset="0.8834" style="stop-color:#C9EFFF;stop-opacity:0.1166"/>
	<stop  offset="1" style="stop-color:#C4EEFF;stop-opacity:0"/>
	<a:midPointStop  offset="0" style="stop-color:#D4F2FF"/>
	<a:midPointStop  offset="0.8" style="stop-color:#D4F2FF"/>
	<a:midPointStop  offset="1" style="stop-color:#C4EEFF;stop-opacity:0"/>
</radialGradient>
<path fill="url(#SVGID_4_)" d="M18.278,53.368c0.575,2.495,0.08,4.738-1.103,5.012c-1.183,0.271-2.608-1.53-3.183-4.023
	c-0.574-2.496-0.081-4.738,1.104-5.011C16.28,49.074,17.705,50.875,18.278,53.368z"/>
<radialGradient id="SVGID_5_" cx="-496.6396" cy="-46.9419" r="6.3364" gradientTransform="matrix(0.367 -0.9302 1.4676 0.5791 301.9318 -416.2341)" gradientUnits="userSpaceOnUse">
	<stop  offset="0.4303" style="stop-color:#66E4FF"/>
	<stop  offset="0.5507" style="stop-color:#61E0FF"/>
	<stop  offset="0.6944" style="stop-color:#52D5FF"/>
	<stop  offset="0.8493" style="stop-color:#3BC2FF"/>
	<stop  offset="1" style="stop-color:#1CAAFF"/>
	<a:midPointStop  offset="0.4303" style="stop-color:#66E4FF"/>
	<a:midPointStop  offset="0.6702" style="stop-color:#66E4FF"/>
	<a:midPointStop  offset="1" style="stop-color:#1CAAFF"/>
</radialGradient>
<path fill="url(#SVGID_5_)" d="M55.73,13.959c-5.174-1.745-12.663,1.429-13.24,2.04c-0.756,0.803,2.482-0.473,7.826,7.204
	C57.857,34.045,69.224,18.51,55.73,13.959z"/>
<radialGradient id="SVGID_6_" cx="563.1455" cy="-159.8838" r="4.1021" gradientTransform="matrix(-0.1203 0.5223 1.101 0.2534 297.6234 -237.4985)" gradientUnits="userSpaceOnUse">
	<stop  offset="0" style="stop-color:#D4F2FF"/>
	<stop  offset="0.5519" style="stop-color:#D1F1FF;stop-opacity:0.4481"/>
	<stop  offset="0.8834" style="stop-color:#C9EFFF;stop-opacity:0.1166"/>
	<stop  offset="1" style="stop-color:#C4EEFF;stop-opacity:0"/>
	<a:midPointStop  offset="0" style="stop-color:#D4F2FF"/>
	<a:midPointStop  offset="0.8" style="stop-color:#D4F2FF"/>
	<a:midPointStop  offset="1" style="stop-color:#C4EEFF;stop-opacity:0"/>
</radialGradient>
<path fill="url(#SVGID_6_)" d="M53.369,18.278c2.494,0.575,4.737,0.08,5.01-1.102c0.273-1.185-1.529-2.609-4.023-3.183
	c-2.494-0.575-4.738-0.081-5.01,1.104C49.074,16.28,50.875,17.706,53.369,18.278z"/>
<path fill="#1A1626" d="M39.551,16.26c-3.409,1.097-9.763,3.744-12.929,5.444c-0.585,0.313-1.072-0.134-0.842-0.772
	c1.57-4.275,2.893-8.361,4.357-13.284c0.271-0.905,1.748-0.605,1.752,0.379c0.021,2.629-0.604,5.729-1.049,8
	c2.361-0.742,5.926-1.453,8.584-1.561C40.475,14.422,40.391,15.991,39.551,16.26z"/>
<path fill="#1A1626" d="M14.468,39.424c0.108-2.661,0.818-6.223,1.56-8.584c-2.271,0.445-5.371,1.07-8,1.05
	c-0.984-0.006-1.283-1.483-0.378-1.752c4.922-1.465,9.008-2.788,13.283-4.358c0.639-0.231,1.085,0.256,0.771,0.842
	c-1.698,3.164-4.347,9.52-5.444,12.927C15.991,40.391,14.421,40.475,14.468,39.424z"/>
</svg>
