<?xml version="1.0" encoding="utf-8"?>
<!-- Generator: Adobe Illustrator 15.0.0, SVG Export Plug-In . SVG Version: 6.00 Build 0)  -->
<!DOCTYPE svg PUBLIC "-//W3C//DTD SVG 1.1//EN" "http://www.w3.org/Graphics/SVG/1.1/DTD/svg11.dtd" [
	<!ENTITY ns_flows "http://ns.adobe.com/Flows/1.0/">
	<!ENTITY ns_extend "http://ns.adobe.com/Extensibility/1.0/">
	<!ENTITY ns_ai "http://ns.adobe.com/AdobeIllustrator/10.0/">
	<!ENTITY ns_graphs "http://ns.adobe.com/Graphs/1.0/">
]>
<svg version="1.1" id="Layer_1" xmlns:x="&ns_extend;" xmlns:i="&ns_ai;" xmlns:graph="&ns_graphs;"
	 xmlns="http://www.w3.org/2000/svg" xmlns:xlink="http://www.w3.org/1999/xlink" xmlns:a="http://ns.adobe.com/AdobeSVGViewerExtensions/3.0/"
	 x="0px" y="0px" width="64px" height="64px" viewBox="0 0 64 64" enable-background="new 0 0 64 64" xml:space="preserve">
<linearGradient id="SVGID_1_" gradientUnits="userSpaceOnUse" x1="32.0005" y1="62" x2="32.0005" y2="2.001">
	<stop  offset="0" style="stop-color:#FF7B00"/>
	<stop  offset="0.3236" style="stop-color:#FFAE00"/>
	<stop  offset="0.6205" style="stop-color:#FFD600"/>
	<stop  offset="0.8558" style="stop-color:#FFEE00"/>
	<stop  offset="1" style="stop-color:#FFF700"/>
	<a:midPointStop  offset="0" style="stop-color:#FF7B00"/>
	<a:midPointStop  offset="0.4" style="stop-color:#FF7B00"/>
	<a:midPointStop  offset="1" style="stop-color:#FFF700"/>
</linearGradient>
<circle fill="url(#SVGID_1_)" cx="32" cy="32" r="30"/>
<path fill="#1A1626" d="M47.875,37c-0.32,0-6.65,2-15.875,2c-9.227,0-15.555-2-15.875-2C15.391,37,15,37.508,15,38
	c0,7.271,5.959,15,17,15s17-7.729,17-15C49,37.508,48.609,37,47.875,37z"/>
<linearGradient id="SVGID_2_" gradientUnits="userSpaceOnUse" x1="31.9985" y1="41.3047" x2="31.9985" y2="64">
	<stop  offset="0" style="stop-color:#0E260D"/>
	<stop  offset="0.1174" style="stop-color:#0D6608"/>
	<stop  offset="0.2255" style="stop-color:#0D9904"/>
	<stop  offset="0.3066" style="stop-color:#0CB901"/>
	<stop  offset="0.3515" style="stop-color:#0CC500"/>
	<a:midPointStop  offset="0" style="stop-color:#0E260D"/>
	<a:midPointStop  offset="0.424" style="stop-color:#0E260D"/>
	<a:midPointStop  offset="0.3515" style="stop-color:#0CC500"/>
</linearGradient>
<path fill="url(#SVGID_2_)" d="M21.922,44.719c0,0.898,0,4.406,0,6.025C21.922,59.568,26.436,63.996,32,64
	c5.564-0.004,10.076-4.432,10.076-13.256c0-1.619,0-5.127,0-6.025c0-5.271-10.076-2.867-10.076-2.867S21.922,39.447,21.922,44.719z"
	/>
<path fill="#FFFFFF" d="M30.5,23c0,6.075-4.932,11-11,11c-6.076,0-11-4.925-11-11c0-6.072,4.924-11,11-11
	C25.568,12,30.5,16.928,30.5,23z"/>
<path fill="#FFFFFF" d="M55.5,23c0,6.075-4.932,11-11,11c-6.076,0-11-4.925-11-11c0-6.072,4.924-11,11-11
	C50.568,12,55.5,16.928,55.5,23z"/>
<path fill="#0CC500" d="M29.5,23c0,5.522-4.482,10-10,10c-5.523,0-10-4.477-10-10c0-5.52,4.477-10,10-10
	C25.018,13,29.5,17.48,29.5,23z"/>
<path fill="#0CC500" d="M54.5,23c0,5.522-4.482,10-10,10c-5.523,0-10-4.477-10-10c0-5.52,4.477-10,10-10
	C50.018,13,54.5,17.48,54.5,23z"/>
<path fill="#FFFFFF" d="M44.998,28.234v0.977c0,0.188-0.102,0.289-0.289,0.289h-0.398c-0.188,0-0.289-0.101-0.289-0.289v-0.99
	c-1.615-0.174-2.939-1.11-3.088-2.925c-0.014-0.234,0.119-0.357,0.34-0.357h1.303c0.205,0,0.318,0.112,0.355,0.332
	c0.096,0.541,0.471,0.875,1.09,0.995V23.8c-1.379-0.493-2.906-1.15-2.906-3.133c0-1.766,1.35-2.739,2.906-2.896v-0.983
	c0-0.188,0.102-0.289,0.289-0.289h0.398c0.186,0,0.287,0.101,0.287,0.289v0.992c1.463,0.174,2.742,1.092,2.893,2.869
	c0.016,0.234-0.119,0.357-0.338,0.357h-1.262c-0.205,0-0.318-0.112-0.354-0.329c-0.094-0.511-0.424-0.821-0.939-0.938v2.45
	c1.418,0.504,3.07,1.107,3.07,3.122C48.066,27.105,46.652,28.096,44.998,28.234z M44.021,21.802v-2.075
	c-0.592,0.115-0.92,0.468-0.92,0.94C43.102,21.202,43.469,21.531,44.021,21.802z M46.08,25.312c0-0.551-0.443-0.875-1.082-1.149
	v2.125C45.699,26.184,46.08,25.808,46.08,25.312z"/>
<path fill="#FFFFFF" d="M32.496,57.965v0.979c0,0.188-0.102,0.287-0.289,0.287h-0.396c-0.188,0-0.289-0.1-0.289-0.287v-0.992
	c-1.615-0.174-2.939-1.109-3.088-2.924c-0.016-0.234,0.119-0.357,0.338-0.357h1.305c0.205,0,0.318,0.113,0.354,0.332
	c0.096,0.541,0.471,0.875,1.09,0.994v-2.465c-1.377-0.492-2.906-1.15-2.906-3.133c0-1.768,1.352-2.74,2.906-2.896V46.52
	c0-0.188,0.102-0.289,0.291-0.289h0.396c0.188,0,0.289,0.102,0.289,0.289v0.992c1.463,0.174,2.74,1.092,2.893,2.869
	c0.014,0.234-0.121,0.357-0.34,0.357h-1.26c-0.205,0-0.318-0.113-0.354-0.33c-0.094-0.51-0.426-0.82-0.939-0.938v2.449
	c1.418,0.506,3.068,1.107,3.068,3.123C35.564,56.836,34.15,57.826,32.496,57.965z M31.521,51.533v-2.076
	c-0.594,0.117-0.922,0.469-0.922,0.941C30.6,50.932,30.969,51.262,31.521,51.533z M33.58,55.043c0-0.551-0.443-0.875-1.084-1.15
	v2.125C33.197,55.914,33.58,55.537,33.58,55.043z"/>
<path fill="#FFFFFF" d="M19.998,28.234v0.977c0,0.188-0.102,0.289-0.289,0.289h-0.398c-0.188,0-0.289-0.101-0.289-0.289v-0.99
	c-1.615-0.174-2.939-1.11-3.088-2.925c-0.014-0.234,0.119-0.357,0.34-0.357h1.303c0.205,0,0.318,0.112,0.355,0.332
	c0.096,0.541,0.471,0.875,1.09,0.995V23.8c-1.379-0.493-2.906-1.15-2.906-3.133c0-1.766,1.35-2.739,2.906-2.896V16.79
	c0-0.188,0.1-0.289,0.289-0.289h0.398c0.186,0,0.287,0.101,0.287,0.289v0.991c1.463,0.174,2.742,1.092,2.893,2.869
	c0.016,0.234-0.119,0.357-0.338,0.357h-1.262c-0.205,0-0.318-0.112-0.354-0.329c-0.094-0.511-0.424-0.821-0.939-0.938v2.45
	c1.418,0.504,3.07,1.107,3.07,3.122C23.066,27.105,21.652,28.096,19.998,28.234z M19.021,21.802v-2.075
	c-0.592,0.115-0.92,0.468-0.92,0.94C18.102,21.202,18.469,21.531,19.021,21.802z M21.08,25.312c0-0.551-0.443-0.875-1.082-1.149
	v2.125C20.699,26.184,21.08,25.808,21.08,25.312z"/>
</svg>
