<?xml version="1.0" encoding="utf-8"?>
<!-- Generator: Adobe Illustrator 15.0.0, SVG Export Plug-In . SVG Version: 6.00 Build 0)  -->
<!DOCTYPE svg PUBLIC "-//W3C//DTD SVG 1.1//EN" "http://www.w3.org/Graphics/SVG/1.1/DTD/svg11.dtd" [
	<!ENTITY ns_flows "http://ns.adobe.com/Flows/1.0/">
	<!ENTITY ns_extend "http://ns.adobe.com/Extensibility/1.0/">
	<!ENTITY ns_ai "http://ns.adobe.com/AdobeIllustrator/10.0/">
	<!ENTITY ns_graphs "http://ns.adobe.com/Graphs/1.0/">
]>
<svg version="1.1" id="Layer_1" xmlns:x="&ns_extend;" xmlns:i="&ns_ai;" xmlns:graph="&ns_graphs;"
	 xmlns="http://www.w3.org/2000/svg" xmlns:xlink="http://www.w3.org/1999/xlink" xmlns:a="http://ns.adobe.com/AdobeSVGViewerExtensions/3.0/"
	 x="0px" y="0px" width="64px" height="64px" viewBox="0 0 64 64" enable-background="new 0 0 64 64" xml:space="preserve">
<radialGradient id="SVGID_1_" cx="31.3794" cy="28.7861" r="35.1356" gradientTransform="matrix(0.9645 0.2954 -0.197 0.7853 6.3388 -12.0866)" gradientUnits="userSpaceOnUse">
	<stop  offset="0.4364" style="stop-color:#FFC940"/>
	<stop  offset="0.6859" style="stop-color:#FFC73E"/>
	<stop  offset="0.7967" style="stop-color:#FFC039"/>
	<stop  offset="0.88" style="stop-color:#FFB330"/>
	<stop  offset="0.903" style="stop-color:#FFAE2C"/>
	<a:midPointStop  offset="0.4364" style="stop-color:#FFC940"/>
	<a:midPointStop  offset="0.844" style="stop-color:#FFC940"/>
	<a:midPointStop  offset="0.903" style="stop-color:#FFAE2C"/>
</radialGradient>
<path fill="url(#SVGID_1_)" d="M9.354,7.98c-3.217-2.14-11.384,17.4-7.838,18.791c1.881,0.736,6.665,3.513,7.896,5.714
	C16.033,44.35,36.95,58.259,40.813,48.669c3.147,0.555,5.246-0.675,5.354-3.564c2.594-0.369,4.941-2.422,4.939-4.572
	c3.412-0.161,3.189-4.011,2.181-6.492c-3.87-9.525-12.396-20.983-24.536-23.323C24.281,9.848,17.15,13.174,9.354,7.98z"/>
<path fill="#DB942D" d="M8.714,32.89c-1.059-1.896-5.511-4.586-7.485-5.356C-2.921,25.907,4.41,7,8.816,7
	c0.353,0,0.68,0.1,0.976,0.297c7.508,5.003,14.625,1.743,19.11,2.62c12.357,2.38,21.082,13.861,25.127,23.811
	c1.638,4.04,0.402,7.023-2.191,7.535c-0.395,2.073-2.413,3.943-4.928,4.532c-0.498,3.479-3.529,4-5.62,3.768
	C36.34,59.165,15.216,44.533,8.714,32.89z M8.906,8.662c-2.821,0-9.429,16.432-7.103,17.348c1.788,0.7,6.886,3.534,8.305,6.073
	c6.175,11.063,27.3,25.632,30.208,15.671c0,0,5.432,1.62,5.075-3.362c2.208-0.148,5.261-1.797,4.912-4.639
	c3.786,0.261,2.978-3.593,2.244-5.4c-3.883-9.556-12.215-20.573-23.946-22.832c-4.145-0.812-11.667,2.483-19.686-2.858
	C8.915,8.662,8.91,8.662,8.906,8.662z"/>
<path fill="#DB942D" d="M40.735,49.501c-0.066-0.029-6.792-3.192-13.657-8.253l0.939-1.321c6.73,4.961,13.32,8.061,13.386,8.093
	L40.735,49.501z"/>
<path fill="#DB942D" d="M45.771,45.748c-0.054-0.042-5.418-4.21-14.052-9.188l0.787-1.418c8.741,5.038,14.184,9.269,14.239,9.31
	L45.771,45.748z"/>
<path fill="#DB942D" d="M50.585,41.052c-0.039-0.046-4.026-4.771-13.914-10.009l0.737-1.448
	C47.614,35.001,51.644,39.8,51.811,40.001L50.585,41.052z"/>
<linearGradient id="SVGID_2_" gradientUnits="userSpaceOnUse" x1="51.8223" y1="38.9521" x2="34.5808" y2="13.0901">
	<stop  offset="0" style="stop-color:#FFAE2C"/>
	<stop  offset="0.1378" style="stop-color:#FFB834"/>
	<stop  offset="0.3858" style="stop-color:#FFC53D"/>
	<stop  offset="0.6242" style="stop-color:#FFC940"/>
	<a:midPointStop  offset="0" style="stop-color:#FFAE2C"/>
	<a:midPointStop  offset="0.3011" style="stop-color:#FFAE2C"/>
	<a:midPointStop  offset="0.6242" style="stop-color:#FFC940"/>
</linearGradient>
<path fill="url(#SVGID_2_)" d="M54.54,10.925c3.063-2.409,11.383,16.313,7.837,17.702c-1.879,0.738-7.304,4.498-8.535,6.702
	c-6.261-10.447-22.765-16.158-24.324-13.907c-7.064,10.2-12.739,3.105-10.3,0.6c4.89-5.026,5.844-8.81,8.616-9.038
	c3.565-0.296,8.182-1.058,17.826,2.077C46.521,15.34,50.752,13.908,54.54,10.925z"/>
<path fill="#DB942D" d="M55.146,9.896c-0.977,0-7.844,4.816-9.239,4.388c-7.642-2.346-13.463-2.794-18.136-2.115
	c-3.57,0.521-3.785,3.793-9.12,9.277c-3.525,3.62,4.252,11.331,11.51,0.459c0.713-1.067,16.068,2.282,23.707,15.028
	c2.176-3.889,7.54-7.05,8.799-7.545C67.011,27.685,59.752,9.896,55.146,9.896z M61.864,27.924c-1.781,0.701-5.964,3.637-7.979,5.978
	c-6.548-9.646-22.901-16.163-25.024-12.951c-5.844,8.853-10.989,3.606-9.075,1.645c5.119-5.262,5.801-8.567,8.113-8.799
	c1.07-0.108,7.154-1.331,17.779,2.078c1.821,0.584,7.94-3.523,9.303-4.299C57.182,10.325,65.092,26.658,61.864,27.924z"/>
<radialGradient id="SVGID_3_" cx="12.8037" cy="77.2607" r="4.1642" gradientTransform="matrix(0.9991 0.0655 -0.0557 1.0373 8.4655 -41.592)" gradientUnits="userSpaceOnUse">
	<stop  offset="0.5212" style="stop-color:#FFC940"/>
	<stop  offset="0.7063" style="stop-color:#FFC33C"/>
	<stop  offset="0.9549" style="stop-color:#FFB22F"/>
	<stop  offset="1" style="stop-color:#FFAE2C"/>
	<a:midPointStop  offset="0.5212" style="stop-color:#FFC940"/>
	<a:midPointStop  offset="0.6437" style="stop-color:#FFC940"/>
	<a:midPointStop  offset="1" style="stop-color:#FFAE2C"/>
</radialGradient>
<path fill="url(#SVGID_3_)" d="M14.446,37.592c-0.705,0.83-1.59,2.195-2.09,3.032c-1.269,2.124,0.723,6.779,4.76,4.226
	c0.821-0.52,2.202-2.292,2.788-3.369C21.459,38.626,16.441,35.252,14.446,37.592z"/>
<radialGradient id="SVGID_4_" cx="-40.3696" cy="101.1191" r="5.1268" gradientTransform="matrix(0.9046 0.0936 -0.0899 1.0598 67.4701 -60.6552)" gradientUnits="userSpaceOnUse">
	<stop  offset="0.5212" style="stop-color:#FFC940"/>
	<stop  offset="0.7063" style="stop-color:#FFC33C"/>
	<stop  offset="0.9549" style="stop-color:#FFB22F"/>
	<stop  offset="1" style="stop-color:#FFAE2C"/>
	<a:midPointStop  offset="0.5212" style="stop-color:#FFC940"/>
	<a:midPointStop  offset="0.6437" style="stop-color:#FFC940"/>
	<a:midPointStop  offset="1" style="stop-color:#FFAE2C"/>
</radialGradient>
<path fill="url(#SVGID_4_)" d="M19.985,41.529c-0.75,0.703-2.904,3.521-3.388,4.362c-1.342,2.334,0.873,6.644,4.163,4.45
	c0.765-0.507,4.554-4.356,5.129-5.439C27.41,42.027,22.301,39.362,19.985,41.529z"/>
<radialGradient id="SVGID_5_" cx="-31.8032" cy="106.6211" r="4.4051" gradientTransform="matrix(0.9008 0.0932 -0.0901 1.0622 71.3884 -61.5107)" gradientUnits="userSpaceOnUse">
	<stop  offset="0.5212" style="stop-color:#FFC940"/>
	<stop  offset="0.7063" style="stop-color:#FFC33C"/>
	<stop  offset="0.9549" style="stop-color:#FFB22F"/>
	<stop  offset="1" style="stop-color:#FFAE2C"/>
	<a:midPointStop  offset="0.5212" style="stop-color:#FFC940"/>
	<a:midPointStop  offset="0.6437" style="stop-color:#FFC940"/>
	<a:midPointStop  offset="1" style="stop-color:#FFAE2C"/>
</radialGradient>
<path fill="url(#SVGID_5_)" d="M31.731,47.983c-0.754,0.692-2.814,3.025-3.298,3.87c-1.439,2.518,1.537,5.626,4.193,3.774
	c1.565-1.089,2.784-2.881,3.282-4.025C37.267,48.482,34.552,45.386,31.731,47.983z"/>
<radialGradient id="SVGID_6_" cx="-28.4458" cy="102.3662" r="5.4689" gradientTransform="matrix(0.913 0.0946 -0.0879 1.0363 62.7164 -57.5836)" gradientUnits="userSpaceOnUse">
	<stop  offset="0.5212" style="stop-color:#FFC940"/>
	<stop  offset="0.7063" style="stop-color:#FFC33C"/>
	<stop  offset="0.9549" style="stop-color:#FFB22F"/>
	<stop  offset="1" style="stop-color:#FFAE2C"/>
	<a:midPointStop  offset="0.5212" style="stop-color:#FFC940"/>
	<a:midPointStop  offset="0.6437" style="stop-color:#FFC940"/>
	<a:midPointStop  offset="1" style="stop-color:#FFAE2C"/>
</radialGradient>
<path fill="url(#SVGID_6_)" d="M26.639,44.254c-0.763,0.671-4.188,4.5-4.673,5.324c-1.794,3.023,2.144,5.929,4.629,4.269
	c2.088-1.396,4.314-4.938,5.007-5.887C33.369,45.527,29.491,41.728,26.639,44.254z"/>
<path fill="#DB942D" d="M11.672,40.201c0.544-0.915,1.439-2.287,2.167-3.142c2.587-3.034,8.8,1.075,6.765,4.818
	c-0.596,1.098-2.053,3.022-3.064,3.664C12.637,48.646,10.037,42.938,11.672,40.201z M15.049,38.129
	c-0.618,0.726-1.456,1.989-2.01,2.919c-0.786,1.316,0.318,5.218,3.653,3.11c0.623-0.395,1.913-1.972,2.511-3.071
	C20.281,39.109,16.402,36.539,15.049,38.129z"/>
<path fill="#DB942D" d="M15.906,45.478c0.535-0.925,2.737-3.801,3.537-4.548c2.934-2.748,9.128,0.623,7.15,4.36
	c-0.667,1.261-4.566,5.184-5.396,5.735C17.158,53.718,14.15,48.531,15.906,45.478z M20.527,42.131
	c-0.673,0.631-2.783,3.384-3.237,4.173c-0.867,1.506,0.399,5.112,3.031,3.356c0.693-0.463,4.381-4.235,4.864-5.146
	C26.218,42.562,22.248,40.521,20.527,42.131z"/>
<path fill="#DB942D" d="M27.739,51.443c0.561-0.976,2.715-3.386,3.457-4.064c3.242-2.987,7.284,0.335,5.444,4.554
	c-0.588,1.351-1.915,3.222-3.561,4.368C29.785,58.601,25.839,54.772,27.739,51.443z M32.268,48.589
	c-0.723,0.665-2.715,2.926-3.144,3.675c-1.015,1.776,1.179,3.995,3.05,2.691c1.379-0.96,2.524-2.581,3.002-3.684
	C36.066,49.224,34.596,46.448,32.268,48.589z"/>
<path fill="#DB942D" d="M21.279,49.155c0.544-0.919,4.037-4.814,4.835-5.52c3.294-2.912,8.84,1.085,6.13,4.809
	c-0.103,0.143-3.315,4.818-5.207,6.084C23.787,56.696,19.073,52.881,21.279,49.155z M27.165,44.869
	c-0.757,0.667-4.094,4.416-4.513,5.129c-1.396,2.356,1.864,4.263,3.506,3.165c1.634-1.094,4.689-5.539,4.8-5.688
	C32.545,45.29,29.033,43.213,27.165,44.869z"/>
</svg>
